{"title":"Interior. Leather Bar (2013) DVD RIP","uid":9516887,"size":827926268,"categoryP":"video","categoryS":"movies","magnet":"?xt=urn:btih:24a6c4c67853f986025ff10ae84f68774b7b45a6&amp;dn=Interior.+Leather+Bar+%282013%29+DVD+RIP&amp;tr=udp%3A%2F%2Ftracker.openbittorrent.com%3A80&amp;tr=udp%3A%2F%2Fopen.demonii.com%3A1337&amp;tr=udp%3A%2F%2Ftracker.coppersurfer.tk%3A6969&amp;tr=udp%3A%2F%2Fexodus.desync.com%3A6969","seeders":2,"leechers":2,"uploader":null,"files":2,"time":1390540696,"description":" &lt;a href=&quot;http://postimg.org/image/ecq8oqp8d/&quot; rel=&quot;nofollow&quot; target=&quot;_NEW&quot;&gt;http://postimg.org/image/ecq8oqp8d/&lt;/a&gt;\n\n\n &lt;a href=&quot;\nhttp://postimg.org/image/skfxde1x9/&quot; rel=&quot;nofollow&quot; target=&quot;_NEW&quot;&gt;\nhttp://postimg.org/image/skfxde1x9/&lt;/a&gt;\n\n\n &lt;a href=&quot;\nhttp://www.imdb.com/title/tt2352488/&quot; rel=&quot;nofollow&quot; target=&quot;_NEW&quot;&gt;\nhttp://www.imdb.com/title/tt2352488/&lt;/a&gt;\n\n\n\nStoryline\n\nIn order to avoid an X rating, 40 minutes of gay S&amp;M footage was rumored to be cut and destroyed from the 1980 film, &quot;Cruising.&quot; Inspired by the mythology of this controversial film, filmmakers James Franco and Travis Mathews collaborate to imagine their own lost footage. Amid the backdrop of a frenzied film set actor Val Lauren reluctantly agrees to take the lead in the film. Val is repeatedly forced to negotiate his boundaries during scenes on and &quot;off camera,&quot; as unsimulated gay sex happens around him. The film itself is constructed as a play with boundaries remaining queer in subject and form. As much a film about filmmaking as it is about an exploration of sexual and creative freedom, &quot;Interior. Leather Bar.&quot; defies easy categorization.\n\n\nFormat                                   : MPEG-4\nFormat profile                           : Base Media / Version 2\nCodec ID                                 : mp42\nFile size                                : 769 MiB\nDuration                                 : 57mn 42s\nOverall bit rate mode                    : Variable\nOverall bit rate                         : 1 862 Kbps\nEncoded date                             : UTC 2014-01-24 03:26:39\nTagged date                              : UTC 2014-01-24 04:03:58\nWriting application                      : HandBrake 0.9.9 2013052900\n\nVideo\nID                                       : 1\nFormat                                   : AVC\nFormat/Info                              : Advanced Video Codec\nFormat profile                           : &lt;a class=&quot;__cf_email__&quot; href=&quot;/cdn-cgi/l/email-protection&quot; data-cfemail=&quot;2b664a42456b671f051b&quot;&gt;[email&amp;#160;protected]&lt;/a&gt;&lt;script cf-hash='f9e31' type=&quot;text/javascript&quot;&gt;\n/* &lt;![CDATA[ */!function(){try{var t=&quot;currentScript&quot;in document?document.currentScript:function(){for(var t=document.getElementsByTagName(&quot;script&quot;),e=t.length;e--;)if(t[e].getAttribute(&quot;cf-hash&quot;))return t[e]}();if(t&amp;&amp;t.previousSibling){var e,r,n,i,c=t.previousSibling,a=c.getAttribute(&quot;data-cfemail&quot;);if(a){for(e=&quot;&quot;,r=parseInt(a.substr(0,2),16),n=2;a.length-n;n+=2)i=parseInt(a.substr(n,2),16)^r,e+=String.fromCharCode(i);e=document.createTextNode(e),c.parentNode.replaceChild(e,c)}}}catch(u){}}();/* ]]&gt; */&lt;/script&gt;\nFormat settings, CABAC                   : Yes\nFormat settings, ReFrames                : 4 frames\nCodec ID                                 : avc1\nCodec ID/Info                            : Advanced Video Coding\nDuration                                 : 57mn 42s\nBit rate                                 : 1 698 Kbps\nWidth                                    : 720 pixels\nHeight                                   : 576 pixels\nDisplay aspect ratio                     : 16:9\nFrame rate mode                          : Constant\nFrame rate                               : 25.000 fps\nStandard                                 : PAL\nColor space                              : YUV\nChroma subsampling                       : 4:2:0\nBit depth                                : 8 bits\nScan type                                : Progressive\nBits/(Pixel*Frame)                       : 0.164\nStream size                              : 701 MiB (91%)\nWriting library                          : x264 core 130 r2273 b3065e6\nEncoding settings                        : cabac=1 / ref=3 / deblock=1:0:0 / \nEncoded date                             : UTC 2014-01-24 03:26:39\nTagged date                              : UTC 2014-01-24 04:03:58\nColor primaries                          : BT.601 PAL\nTransfer characteristics                 : BT.709\nMatrix coefficients                      : BT.601\n\nAudio\nID                                       : 2\nFormat                                   : AAC\nFormat/Info                              : Advanced Audio Codec\nFormat profile                           : LC\nCodec ID                                 : 40\nDuration                                 : 57mn 42s\nBit rate mode                            : Variable\nBit rate                                 : 160 Kbps\nMaximum bit rate                         : 259 Kbps\nChannel(s)                               : 2 channels\nChannel positions                        : Front: L R\nSampling rate                            : 48.0 KHz\nCompression mode                         : Lossy\nStream size                              : 65.9 MiB (9%)\nLanguage                                 : English\nEncoded date                             : UTC 2014-01-24 03:26:39\nTagged date                              : UTC 2014-01-24 04:03:57\n\n\nRUNTIME: 57 Minutes 42 Seconds\n\n\nPlease Note IMDB runtime for this is wrong\n","torrent":{"xt":"urn:btih:24a6c4c67853f986025ff10ae84f68774b7b45a6","amp;dn":"Interior.+Leather+Bar+%282013%29+DVD+RIP","amp;tr":["udp%3A%2F%2Ftracker.openbittorrent.com%3A80","udp%3A%2F%2Fopen.demonii.com%3A1337","udp%3A%2F%2Ftracker.coppersurfer.tk%3A6969","udp%3A%2F%2Fexodus.desync.com%3A6969"],"infoHash":"24a6c4c67853f986025ff10ae84f68774b7b45a6","infoHashBuffer":{"type":"Buffer","data":[36,166,196,198,120,83,249,134,2,95,241,10,232,79,104,119,75,123,69,166]},"announce":[],"urlList":[]}}